# xmcd CD database file
#
# Track frame offsets:
#	150
#	26099
#	40875
#	53559
#	63161
#	83752
#	95321
#	112309
#	123853
#
# Disc length: 1846 seconds
#
# Revision: 1
# Processed by: cddbd v1.5.2PL0 Copyright (c) Steve Scherf et al.
# Submitted via: CDex 1.51
#
DISCID=6d073409
DTITLE=String of Pearls - String of Pearls
DYEAR=2000
DGENRE=Jazz
TTITLE0=String of Pearls/ Lullaby of Broadway
TTITLE1=Sweet Georgia Brown
TTITLE2=Java Jive
TTITLE3=Hold Tight
TTITLE4=Don't Mean a Thing/ 42nd Street
TTITLE5=Boogie Woogie Bugle Boy
TTITLE6=Old Cape Cod
TTITLE7=In the Mood
TTITLE8=Sing, Sing, Sing
EXTD=YEAR: 2000
EXTT0=
EXTT1=
EXTT2=
EXTT3=
EXTT4=
EXTT5=
EXTT6=
EXTT7=
EXTT8=
PLAYORDER=
